<svg width="464" height="550" viewBox="0 0 464 550" fill="none" xmlns="http://www.w3.org/2000/svg">
<rect width="464" height="550" rx="5" fill="#DEF7FC"/>
<path d="M12.8 47C12.0933 47 11.74 46.6467 11.74 45.94V22.28C11.74 21.5733 12.0933 21.22 12.8 21.22C13.1733 21.22 13.5333 21.4267 13.88 21.84L30.82 43.6H30.34V22.28C30.34 21.5733 30.6933 21.22 31.4 21.22C32.0933 21.22 32.44 21.5733 32.44 22.28V45.94C32.44 46.6467 32.0933 47 31.4 47C31.0133 47 30.6533 46.7933 30.32 46.38L13.36 24.62H13.84V45.94C13.84 46.6467 13.4933 47 12.8 47ZM47.7041 47C44.8107 47 42.6974 46.3333 41.3641 45C40.0307 43.6667 39.3641 41.5533 39.3641 38.66V29.54C39.3641 26.62 40.0307 24.5 41.3641 23.18C42.6974 21.8467 44.7974 21.1933 47.6641 21.22H52.5041C55.3974 21.22 57.5041 21.8867 58.8241 23.22C60.1574 24.5533 60.8241 26.6667 60.8241 29.56V38.66C60.8241 41.5533 60.1574 43.6667 58.8241 45C57.5041 46.3333 55.3974 47 52.5041 47H47.7041ZM47.7041 44.9H52.5041C54.0374 44.9 55.2574 44.7 56.1641 44.3C57.0707 43.9 57.7241 43.2467 58.1241 42.34C58.5241 41.4333 58.7241 40.2067 58.7241 38.66V29.56C58.7241 28.0267 58.5241 26.8067 58.1241 25.9C57.7241 24.9933 57.0707 24.34 56.1641 23.94C55.2574 23.5267 54.0374 23.32 52.5041 23.32H47.6641C46.1307 23.3067 44.9107 23.5 44.0041 23.9C43.1107 24.2867 42.4641 24.94 42.0641 25.86C41.6641 26.7667 41.4641 27.9933 41.4641 29.54V38.66C41.4641 40.2067 41.6641 41.4333 42.0641 42.34C42.4641 43.2467 43.1174 43.9 44.0241 44.3C44.9307 44.7 46.1574 44.9 47.7041 44.9ZM73.7741 47.02C73.4541 47.02 73.1941 46.9267 72.9941 46.74C72.8074 46.5533 72.7141 46.3 72.7141 45.98V23.3H64.2141C63.8941 23.3 63.6341 23.2067 63.4341 23.02C63.2474 22.8333 63.1541 22.58 63.1541 22.26C63.1541 21.94 63.2474 21.6867 63.4341 21.5C63.6341 21.3 63.8941 21.2 64.2141 21.2H83.3341C83.6541 21.2 83.9074 21.3 84.0941 21.5C84.2807 21.6867 84.3741 21.94 84.3741 22.26C84.3741 22.58 84.2807 22.8333 84.0941 23.02C83.9074 23.2067 83.6541 23.3 83.3341 23.3H74.8141V45.98C74.8141 46.2867 74.7141 46.54 74.5141 46.74C74.3274 46.9267 74.0807 47.02 73.7741 47.02ZM83.6263 46.9C82.9863 46.62 82.7929 46.1533 83.0463 45.5L92.9663 22.04C93.1796 21.4933 93.5729 21.22 94.1463 21.22H94.2663C94.8129 21.2333 95.1996 21.5067 95.4263 22.04L105.346 45.5C105.613 46.1533 105.426 46.62 104.786 46.9C104.133 47.1667 103.68 46.98 103.426 46.34L100.766 40.04H87.6663L85.0063 46.34C84.7396 46.98 84.2796 47.1667 83.6263 46.9ZM88.5263 37.94H99.8863L94.2063 24.54L88.5263 37.94ZM115.626 46.96C113.239 46.96 111.466 46.4333 110.306 45.38C109.159 44.3133 108.546 42.64 108.466 40.36C108.452 40.04 108.539 39.7867 108.726 39.6C108.926 39.4 109.186 39.3 109.506 39.3C109.826 39.3 110.079 39.3933 110.266 39.58C110.452 39.7667 110.559 40.02 110.586 40.34C110.639 42.02 111.039 43.1933 111.786 43.86C112.532 44.5267 113.812 44.86 115.626 44.86H121.386C123.279 44.86 124.592 44.4933 125.326 43.76C126.072 43.0133 126.446 41.7067 126.446 39.84C126.446 37.9467 126.072 36.6333 125.326 35.9C124.592 35.1533 123.279 34.78 121.386 34.78H115.906C113.559 34.78 111.839 34.2333 110.746 33.14C109.652 32.0467 109.106 30.3333 109.106 28C109.106 25.6667 109.646 23.9533 110.726 22.86C111.819 21.7667 113.532 21.22 115.866 21.22H121.466C123.706 21.22 125.366 21.72 126.446 22.72C127.539 23.72 128.126 25.2933 128.206 27.44C128.232 27.76 128.146 28.02 127.946 28.22C127.759 28.4067 127.499 28.5 127.166 28.5C126.859 28.5 126.612 28.4067 126.426 28.22C126.239 28.0333 126.132 27.78 126.106 27.46C126.052 25.9267 125.679 24.8533 124.986 24.24C124.292 23.6267 123.119 23.32 121.466 23.32H115.866C114.119 23.32 112.906 23.6667 112.226 24.36C111.546 25.04 111.206 26.2533 111.206 28C111.206 29.7467 111.546 30.9667 112.226 31.66C112.919 32.34 114.146 32.68 115.906 32.68H121.386C123.866 32.68 125.679 33.26 126.826 34.42C127.972 35.5667 128.546 37.3733 128.546 39.84C128.546 42.3067 127.972 44.1133 126.826 45.26C125.679 46.3933 123.866 46.96 121.386 46.96H115.626ZM135.85 47C135.077 47 134.69 46.6067 134.69 45.82V45.06C134.69 44.3 135.077 43.92 135.85 43.92H136.59C137.35 43.92 137.73 44.3 137.73 45.06V45.82C137.73 46.6067 137.35 47 136.59 47H135.85ZM135.85 33.8C135.077 33.8 134.69 33.4067 134.69 32.62V31.86C134.69 31.1 135.077 30.72 135.85 30.72H136.59C137.35 30.72 137.73 31.1 137.73 31.86V32.62C137.73 33.4067 137.35 33.8 136.59 33.8H135.85ZM155.495 47C154.789 47 154.435 46.6467 154.435 45.94V22.28C154.435 21.5733 154.789 21.22 155.495 21.22C155.869 21.22 156.229 21.4267 156.575 21.84L173.515 43.6H173.035V22.28C173.035 21.5733 173.389 21.22 174.095 21.22C174.789 21.22 175.135 21.5733 175.135 22.28V45.94C175.135 46.6467 174.789 47 174.095 47C173.709 47 173.349 46.7933 173.015 46.38L156.055 24.62H156.535V45.94C156.535 46.6467 156.189 47 155.495 47ZM189.279 47C186.786 47 184.959 46.4267 183.799 45.28C182.639 44.12 182.059 42.3 182.059 39.82V35.3C182.059 32.78 182.639 30.9467 183.799 29.8C184.959 28.64 186.786 28.0733 189.279 28.1H192.559C195.053 28.1 196.873 28.68 198.019 29.84C199.179 30.9867 199.759 32.8067 199.759 35.3V39.78C199.759 42.2733 199.179 44.1 198.019 45.26C196.873 46.42 195.053 47 192.559 47H189.279ZM184.159 39.82C184.159 41.7 184.533 43.02 185.279 43.78C186.039 44.5267 187.373 44.9 189.279 44.9H192.559C194.466 44.9 195.793 44.5267 196.539 43.78C197.286 43.02 197.659 41.6867 197.659 39.78V35.3C197.659 33.3933 197.286 32.0667 196.539 31.32C195.793 30.5733 194.466 30.2 192.559 30.2H189.279C187.999 30.1867 186.986 30.34 186.239 30.66C185.493 30.98 184.959 31.5133 184.639 32.26C184.319 33.0067 184.159 34.02 184.159 35.3V39.82ZM213.18 46.2C213.033 46.52 212.853 46.7333 212.64 46.84C212.426 46.9467 212.18 47 211.9 47C211.313 47 210.9 46.7267 210.66 46.18L203.24 29.56C202.96 28.9067 203.153 28.4533 203.82 28.2C204.446 27.9333 204.9 28.12 205.18 28.76L212.58 45.32H211.3L219.18 28.74C219.326 28.4333 219.52 28.2333 219.76 28.14C220 28.0467 220.273 28.0667 220.58 28.2C221.233 28.4933 221.413 28.96 221.12 29.6L213.18 46.2ZM231.188 47C229.108 47 227.581 46.52 226.608 45.56C225.648 44.5867 225.168 43.06 225.168 40.98C225.168 38.9 225.655 37.3733 226.628 36.4C227.601 35.4267 229.121 34.94 231.188 34.94H240.288C240.261 33.18 239.861 31.9533 239.088 31.26C238.328 30.5533 237.028 30.2 235.188 30.2H232.868C231.175 30.2 229.935 30.38 229.148 30.74C228.361 31.1 227.875 31.7133 227.688 32.58C227.595 32.9133 227.468 33.16 227.308 33.32C227.161 33.4667 226.921 33.54 226.588 33.54C226.241 33.54 225.968 33.4467 225.768 33.26C225.581 33.06 225.515 32.7933 225.568 32.46C225.741 30.94 226.428 29.8333 227.628 29.14C228.841 28.4467 230.588 28.1 232.868 28.1H235.188C237.681 28.1 239.501 28.68 240.648 29.84C241.808 30.9867 242.388 32.8067 242.388 35.3V45.94C242.388 46.6467 242.041 47 241.348 47C240.641 47 240.288 46.6467 240.288 45.94V43.96C239.008 45.9867 236.721 47 233.428 47H231.188ZM231.188 44.9H233.428C234.721 44.9 235.855 44.76 236.828 44.48C237.815 44.1867 238.608 43.72 239.208 43.08C239.808 42.44 240.168 41.5867 240.288 40.52V37.04H231.188C229.708 37.04 228.681 37.3267 228.108 37.9C227.548 38.46 227.268 39.4867 227.268 40.98C227.268 42.46 227.548 43.4867 228.108 44.06C228.681 44.62 229.708 44.9 231.188 44.9ZM17.36 94C15.28 94 13.7533 93.52 12.78 92.56C11.82 91.5867 11.34 90.06 11.34 87.98C11.34 85.9 11.8267 84.3733 12.8 83.4C13.7733 82.4267 15.2933 81.94 17.36 81.94H26.46C26.4333 80.18 26.0333 78.9533 25.26 78.26C24.5 77.5533 23.2 77.2 21.36 77.2H19.04C17.3467 77.2 16.1067 77.38 15.32 77.74C14.5333 78.1 14.0467 78.7133 13.86 79.58C13.7667 79.9133 13.64 80.16 13.48 80.32C13.3333 80.4667 13.0933 80.54 12.76 80.54C12.4133 80.54 12.14 80.4467 11.94 80.26C11.7533 80.06 11.6867 79.7933 11.74 79.46C11.9133 77.94 12.6 76.8333 13.8 76.14C15.0133 75.4467 16.76 75.1 19.04 75.1H21.36C23.8533 75.1 25.6733 75.68 26.82 76.84C27.98 77.9867 28.56 79.8067 28.56 82.3V92.94C28.56 93.6467 28.2133 94 27.52 94C26.8133 94 26.46 93.6467 26.46 92.94V90.96C25.18 92.9867 22.8933 94 19.6 94H17.36ZM17.36 91.9H19.6C20.8933 91.9 22.0267 91.76 23 91.48C23.9867 91.1867 24.78 90.72 25.38 90.08C25.98 89.44 26.34 88.5867 26.46 87.52V84.04H17.36C15.88 84.04 14.8533 84.3267 14.28 84.9C13.72 85.46 13.44 86.4867 13.44 87.98C13.44 89.46 13.72 90.4867 14.28 91.06C14.8533 91.62 15.88 91.9 17.36 91.9ZM43.4053 94C40.952 94 39.1586 93.4333 38.0253 92.3C36.892 91.1667 36.3253 89.38 36.3253 86.94V77.2H33.9453C33.2386 77.2 32.8853 76.8467 32.8853 76.14C32.8853 75.4467 33.2386 75.1 33.9453 75.1H36.3253V70.8C36.3253 70.0933 36.672 69.74 37.3653 69.74C38.072 69.74 38.4253 70.0933 38.4253 70.8V75.1H43.4453C44.1386 75.1 44.4853 75.4467 44.4853 76.14C44.4853 76.8467 44.1386 77.2 43.4453 77.2H38.4253V86.94C38.4253 88.8067 38.7853 90.1 39.5053 90.82C40.2386 91.54 41.5386 91.9 43.4053 91.9C43.792 91.9 44.0653 91.9867 44.2253 92.16C44.3986 92.3333 44.4853 92.5933 44.4853 92.94C44.4853 93.6467 44.1253 94 43.4053 94ZM65.9013 75.1C66.6079 75.1 66.9613 75.4467 66.9613 76.14V92.94C66.9613 93.6467 66.6079 94 65.9013 94C65.2079 94 64.8613 93.6467 64.8613 92.94V91.04C63.5946 93.0133 61.3013 94 57.9813 94H56.8613C54.3679 94 52.5413 93.42 51.3813 92.26C50.2346 91.1 49.6613 89.2733 49.6613 86.78V76.14C49.6613 75.4467 50.0079 75.1 50.7013 75.1C51.4079 75.1 51.7613 75.4467 51.7613 76.14V86.78C51.7613 88.6867 52.1346 90.02 52.8813 90.78C53.6413 91.5267 54.9679 91.9 56.8613 91.9H57.9813C60.0479 91.9 61.6746 91.5667 62.8613 90.9C64.0479 90.2333 64.7146 89.2133 64.8613 87.84V76.14C64.8613 75.4467 65.2079 75.1 65.9013 75.1ZM80.0553 94C77.9753 94 76.4486 93.52 75.4753 92.56C74.5153 91.5867 74.0353 90.06 74.0353 87.98C74.0353 85.9 74.522 84.3733 75.4953 83.4C76.4686 82.4267 77.9886 81.94 80.0553 81.94H89.1553C89.1286 80.18 88.7286 78.9533 87.9553 78.26C87.1953 77.5533 85.8953 77.2 84.0553 77.2H81.7353C80.042 77.2 78.802 77.38 78.0153 77.74C77.2286 78.1 76.742 78.7133 76.5553 79.58C76.462 79.9133 76.3353 80.16 76.1753 80.32C76.0286 80.4667 75.7886 80.54 75.4553 80.54C75.1086 80.54 74.8353 80.4467 74.6353 80.26C74.4486 80.06 74.382 79.7933 74.4353 79.46C74.6086 77.94 75.2953 76.8333 76.4953 76.14C77.7086 75.4467 79.4553 75.1 81.7353 75.1H84.0553C86.5486 75.1 88.3686 75.68 89.5153 76.84C90.6753 77.9867 91.2553 79.8067 91.2553 82.3V92.94C91.2553 93.6467 90.9086 94 90.2153 94C89.5086 94 89.1553 93.6467 89.1553 92.94V90.96C87.8753 92.9867 85.5886 94 82.2953 94H80.0553ZM80.0553 91.9H82.2953C83.5886 91.9 84.722 91.76 85.6953 91.48C86.682 91.1867 87.4753 90.72 88.0753 90.08C88.6753 89.44 89.0353 88.5867 89.1553 87.52V84.04H80.0553C78.5753 84.04 77.5486 84.3267 76.9753 84.9C76.4153 85.46 76.1353 86.4867 76.1353 87.98C76.1353 89.46 76.4153 90.4867 76.9753 91.06C77.5486 91.62 78.5753 91.9 80.0553 91.9ZM103.881 94C101.987 94 100.594 93.56 99.7006 92.68C98.8206 91.8 98.3806 90.42 98.3806 88.54V67.3C98.3806 66.6067 98.734 66.26 99.4406 66.26C100.134 66.26 100.481 66.6067 100.481 67.3V88.54C100.481 89.8333 100.721 90.72 101.201 91.2C101.681 91.6667 102.567 91.9 103.861 91.9C104.581 91.9 104.941 92.2467 104.941 92.94C104.954 93.6467 104.601 94 103.881 94ZM110.621 71.46C109.701 71.46 109.241 70.9867 109.241 70.04V69.14C109.241 68.22 109.701 67.76 110.621 67.76H111.521C112.415 67.76 112.861 68.22 112.861 69.14V70.04C112.861 70.9867 112.415 71.46 111.521 71.46H110.621ZM111.081 94C110.375 94 110.021 93.6467 110.021 92.94V76.14C110.021 75.4467 110.375 75.1 111.081 75.1C111.775 75.1 112.121 75.4467 112.121 76.14V92.94C112.121 93.6467 111.775 94 111.081 94ZM119.352 94C118.645 94 118.292 93.6467 118.292 92.94C118.292 92.5933 118.445 92.2267 118.752 91.84L130.992 76.72L131.792 77.2H122.732C121.758 77.2 121.052 77.34 120.612 77.62C120.172 77.9 119.892 78.4267 119.772 79.2C119.718 79.5333 119.605 79.7867 119.432 79.96C119.272 80.1333 119.032 80.22 118.712 80.22C118.352 80.22 118.078 80.1267 117.892 79.94C117.705 79.7533 117.632 79.48 117.672 79.12C117.818 77.7333 118.305 76.72 119.132 76.08C119.972 75.4267 121.172 75.1 122.732 75.1H132.532C133.225 75.1 133.572 75.4467 133.572 76.14C133.572 76.5267 133.425 76.9067 133.132 77.28L121.092 92.2L120.352 91.88L130.012 91.9C130.932 91.9 131.625 91.7467 132.092 91.44C132.558 91.12 132.845 90.6 132.952 89.88C133.032 89.5467 133.152 89.2933 133.312 89.12C133.472 88.9467 133.718 88.86 134.052 88.86C134.412 88.86 134.685 88.96 134.872 89.16C135.058 89.3467 135.125 89.6133 135.072 89.96C134.712 92.6533 133.025 94 130.012 94H119.352ZM145.055 94C142.975 94 141.449 93.52 140.475 92.56C139.515 91.5867 139.035 90.06 139.035 87.98C139.035 85.9 139.522 84.3733 140.495 83.4C141.469 82.4267 142.989 81.94 145.055 81.94H154.155C154.129 80.18 153.729 78.9533 152.955 78.26C152.195 77.5533 150.895 77.2 149.055 77.2H146.735C145.042 77.2 143.802 77.38 143.015 77.74C142.229 78.1 141.742 78.7133 141.555 79.58C141.462 79.9133 141.335 80.16 141.175 80.32C141.029 80.4667 140.789 80.54 140.455 80.54C140.109 80.54 139.835 80.4467 139.635 80.26C139.449 80.06 139.382 79.7933 139.435 79.46C139.609 77.94 140.295 76.8333 141.495 76.14C142.709 75.4467 144.455 75.1 146.735 75.1H149.055C151.549 75.1 153.369 75.68 154.515 76.84C155.675 77.9867 156.255 79.8067 156.255 82.3V92.94C156.255 93.6467 155.909 94 155.215 94C154.509 94 154.155 93.6467 154.155 92.94V90.96C152.875 92.9867 150.589 94 147.295 94H145.055ZM145.055 91.9H147.295C148.589 91.9 149.722 91.76 150.695 91.48C151.682 91.1867 152.475 90.72 153.075 90.08C153.675 89.44 154.035 88.5867 154.155 87.52V84.04H145.055C143.575 84.04 142.549 84.3267 141.975 84.9C141.415 85.46 141.135 86.4867 141.135 87.98C141.135 89.46 141.415 90.4867 141.975 91.06C142.549 91.62 143.575 91.9 145.055 91.9ZM170.061 94C167.567 94 165.741 93.42 164.581 92.26C163.421 91.1 162.841 89.2733 162.841 86.78V82.26C162.841 79.7667 163.414 77.9467 164.561 76.8C165.721 75.64 167.554 75.0733 170.061 75.1H173.341C175.301 75.1 176.794 75.4333 177.821 76.1C178.861 76.7533 179.481 77.7867 179.681 79.2C179.721 79.56 179.641 79.8333 179.441 80.02C179.254 80.2067 178.987 80.3 178.641 80.3C178.321 80.3 178.081 80.22 177.921 80.06C177.761 79.8867 177.641 79.64 177.561 79.32C177.414 78.5467 177.021 78 176.381 77.68C175.741 77.36 174.727 77.2 173.341 77.2H170.061C168.154 77.1733 166.821 77.5333 166.061 78.28C165.314 79.0133 164.941 80.34 164.941 82.26V86.78C164.941 88.6867 165.314 90.02 166.061 90.78C166.821 91.5267 168.154 91.9 170.061 91.9H173.341C174.727 91.9 175.741 91.74 176.381 91.42C177.021 91.1 177.414 90.5467 177.561 89.76C177.641 89.44 177.761 89.2 177.921 89.04C178.081 88.8667 178.321 88.78 178.641 88.78C178.987 88.78 179.254 88.88 179.441 89.08C179.641 89.2667 179.721 89.5333 179.681 89.88C179.481 91.2933 178.861 92.3333 177.821 93C176.794 93.6667 175.301 94 173.341 94H170.061ZM172.341 102.14C170.034 102.14 168.881 100.987 168.881 98.68C168.881 98.0267 169.207 97.7 169.861 97.7C170.514 97.7 170.841 98.0267 170.841 98.68C170.841 99.28 170.941 99.68 171.141 99.88C171.341 100.08 171.741 100.18 172.341 100.18C173.247 100.18 173.854 100.02 174.161 99.7C174.481 99.38 174.641 98.7733 174.641 97.88C174.641 97.6 174.581 97.3733 174.461 97.2C174.341 97.04 174.074 96.82 173.661 96.54C173.407 96.38 173.127 96.1733 172.821 95.92C172.527 95.6667 172.267 95.3333 172.041 94.92C171.827 94.52 171.721 94.0133 171.721 93.4C171.721 92.7467 172.047 92.42 172.701 92.42C173.354 92.42 173.681 92.7467 173.681 93.4C173.681 93.7333 173.747 93.9933 173.881 94.18C174.014 94.38 174.301 94.6267 174.741 94.92C175.101 95.16 175.501 95.4933 175.941 95.92C176.381 96.36 176.601 97.0133 176.601 97.88C176.601 99.3333 176.254 100.407 175.561 101.1C174.881 101.793 173.807 102.14 172.341 102.14ZM191.071 94C188.991 94 187.464 93.52 186.491 92.56C185.531 91.5867 185.051 90.06 185.051 87.98C185.051 85.9 185.538 84.3733 186.511 83.4C187.484 82.4267 189.004 81.94 191.071 81.94H200.171C200.144 80.18 199.744 78.9533 198.971 78.26C198.211 77.5533 196.911 77.2 195.071 77.2H192.751C191.058 77.2 189.818 77.38 189.031 77.74C188.244 78.1 187.758 78.7133 187.571 79.58C187.478 79.9133 187.351 80.16 187.191 80.32C187.044 80.4667 186.804 80.54 186.471 80.54C186.124 80.54 185.851 80.4467 185.651 80.26C185.464 80.06 185.398 79.7933 185.451 79.46C185.624 77.94 186.311 76.8333 187.511 76.14C188.724 75.4467 190.471 75.1 192.751 75.1H195.071C197.564 75.1 199.384 75.68 200.531 76.84C201.691 77.9867 202.271 79.8067 202.271 82.3V92.94C202.271 93.6467 201.924 94 201.231 94C200.524 94 200.171 93.6467 200.171 92.94V90.96C198.891 92.9867 196.604 94 193.311 94H191.071ZM191.071 91.9H193.311C194.604 91.9 195.738 91.76 196.711 91.48C197.698 91.1867 198.491 90.72 199.091 90.08C199.691 89.44 200.051 88.5867 200.171 87.52V84.04H191.071C189.591 84.04 188.564 84.3267 187.991 84.9C187.431 85.46 187.151 86.4867 187.151 87.98C187.151 89.46 187.431 90.4867 187.991 91.06C188.564 91.62 189.591 91.9 191.071 91.9ZM196.231 71.88C195.471 71.88 194.858 71.7067 194.391 71.36C193.938 71.0133 193.564 70.6933 193.271 70.4C192.964 70.08 192.691 69.84 192.451 69.68C192.211 69.5067 191.891 69.42 191.491 69.42C190.998 69.42 190.624 69.5533 190.371 69.82C190.131 70.0867 189.918 70.52 189.731 71.12C189.638 71.3467 189.504 71.5333 189.331 71.68C189.171 71.8133 188.951 71.8533 188.671 71.8C188.271 71.7467 188.018 71.58 187.911 71.3C187.804 71.0067 187.798 70.7533 187.891 70.54C188.238 69.5 188.704 68.7333 189.291 68.24C189.878 67.7467 190.611 67.5 191.491 67.5C192.318 67.5 192.978 67.68 193.471 68.04C193.964 68.4 194.358 68.74 194.651 69.06C195.011 69.4067 195.291 69.64 195.491 69.76C195.704 69.88 195.951 69.94 196.231 69.94C196.671 69.94 197.018 69.8133 197.271 69.56C197.524 69.3067 197.744 68.8933 197.931 68.32C198.024 68.0667 198.144 67.88 198.291 67.76C198.451 67.6267 198.691 67.5733 199.011 67.6C199.398 67.6533 199.644 67.82 199.751 68.1C199.858 68.38 199.871 68.6267 199.791 68.84C199.431 69.8133 198.964 70.5667 198.391 71.1C197.831 71.62 197.111 71.88 196.231 71.88ZM216.076 94C213.583 94 211.756 93.4267 210.596 92.28C209.436 91.12 208.856 89.3 208.856 86.82V82.3C208.856 79.78 209.436 77.9467 210.596 76.8C211.756 75.64 213.583 75.0733 216.076 75.1H219.356C221.85 75.1 223.67 75.68 224.816 76.84C225.976 77.9867 226.556 79.8067 226.556 82.3V86.78C226.556 89.2733 225.976 91.1 224.816 92.26C223.67 93.42 221.85 94 219.356 94H216.076ZM210.956 86.82C210.956 88.7 211.33 90.02 212.076 90.78C212.836 91.5267 214.17 91.9 216.076 91.9H219.356C221.263 91.9 222.59 91.5267 223.336 90.78C224.083 90.02 224.456 88.6867 224.456 86.78V82.3C224.456 80.3933 224.083 79.0667 223.336 78.32C222.59 77.5733 221.263 77.2 219.356 77.2H216.076C214.796 77.1867 213.783 77.34 213.036 77.66C212.29 77.98 211.756 78.5133 211.436 79.26C211.116 80.0067 210.956 81.02 210.956 82.3V86.82ZM250.217 94C247.724 94 245.897 93.42 244.737 92.26C243.577 91.1 242.997 89.2733 242.997 86.78V82.3C242.997 79.8067 243.577 77.9867 244.737 76.84C245.897 75.68 247.724 75.1 250.217 75.1H258.597V67.3C258.597 66.6067 258.95 66.26 259.657 66.26C260.35 66.26 260.697 66.6067 260.697 67.3V92.94C260.697 93.6467 260.35 94 259.657 94C258.95 94 258.597 93.6467 258.597 92.94V91.22C258.024 92.14 257.184 92.8333 256.077 93.3C254.97 93.7667 253.524 94 251.737 94H250.217ZM250.217 91.9H251.737C253.817 91.9 255.477 91.5733 256.717 90.92C257.97 90.2533 258.597 89.26 258.597 87.94V77.2H250.217C248.31 77.2 246.977 77.58 246.217 78.34C245.47 79.0867 245.097 80.4067 245.097 82.3V86.78C245.097 88.6867 245.47 90.02 246.217 90.78C246.977 91.5267 248.31 91.9 250.217 91.9ZM269.394 85.36V86.82C269.394 88.7 269.767 90.02 270.514 90.78C271.274 91.5267 272.607 91.9 274.514 91.9H277.794C279.474 91.9 280.694 91.6867 281.454 91.26C282.227 90.82 282.687 90.0667 282.834 89C282.887 88.6667 282.994 88.4133 283.154 88.24C283.327 88.0667 283.587 87.98 283.934 87.98C284.28 87.98 284.54 88.08 284.714 88.28C284.9 88.4667 284.974 88.7333 284.934 89.08C284.76 90.76 284.087 92 282.914 92.8C281.74 93.6 280.034 94 277.794 94H274.514C272.02 94 270.194 93.4267 269.034 92.28C267.874 91.12 267.294 89.3 267.294 86.82V82.3C267.294 79.78 267.874 77.9467 269.034 76.8C270.194 75.64 272.02 75.0733 274.514 75.1H277.794C280.287 75.1 282.107 75.68 283.254 76.84C284.414 77.9867 284.994 79.8067 284.994 82.3V84.3C284.994 85.0067 284.647 85.36 283.954 85.36H269.394ZM274.514 77.2C272.607 77.1733 271.274 77.54 270.514 78.3C269.767 79.0467 269.394 80.38 269.394 82.3V83.26H282.894V82.3C282.894 80.3933 282.52 79.0667 281.774 78.32C281.027 77.5733 279.7 77.2 277.794 77.2H274.514ZM18.42 141C15.9267 141 14.1 140.42 12.94 139.26C11.78 138.1 11.2 136.273 11.2 133.78V129.26C11.2 126.767 11.7733 124.947 12.92 123.8C14.08 122.64 15.9133 122.073 18.42 122.1H21.7C23.66 122.1 25.1533 122.433 26.18 123.1C27.22 123.753 27.84 124.787 28.04 126.2C28.08 126.56 28 126.833 27.8 127.02C27.6133 127.207 27.3467 127.3 27 127.3C26.68 127.3 26.44 127.22 26.28 127.06C26.12 126.887 26 126.64 25.92 126.32C25.7733 125.547 25.38 125 24.74 124.68C24.1 124.36 23.0867 124.2 21.7 124.2H18.42C16.5133 124.173 15.18 124.533 14.42 125.28C13.6733 126.013 13.3 127.34 13.3 129.26V133.78C13.3 135.687 13.6733 137.02 14.42 137.78C15.18 138.527 16.5133 138.9 18.42 138.9H21.7C23.0867 138.9 24.1 138.74 24.74 138.42C25.38 138.1 25.7733 137.547 25.92 136.76C26 136.44 26.12 136.2 26.28 136.04C26.44 135.867 26.68 135.78 27 135.78C27.3467 135.78 27.6133 135.88 27.8 136.08C28 136.267 28.08 136.533 28.04 136.88C27.84 138.293 27.22 139.333 26.18 140C25.1533 140.667 23.66 141 21.7 141H18.42ZM41.2716 141C38.7782 141 36.9516 140.427 35.7916 139.28C34.6316 138.12 34.0516 136.3 34.0516 133.82V129.3C34.0516 126.78 34.6316 124.947 35.7916 123.8C36.9516 122.64 38.7782 122.073 41.2716 122.1H44.5516C47.0449 122.1 48.8649 122.68 50.0116 123.84C51.1716 124.987 51.7516 126.807 51.7516 129.3V133.78C51.7516 136.273 51.1716 138.1 50.0116 139.26C48.8649 140.42 47.0449 141 44.5516 141H41.2716ZM36.1516 133.82C36.1516 135.7 36.5249 137.02 37.2716 137.78C38.0316 138.527 39.3649 138.9 41.2716 138.9H44.5516C46.4582 138.9 47.7849 138.527 48.5316 137.78C49.2782 137.02 49.6516 135.687 49.6516 133.78V129.3C49.6516 127.393 49.2782 126.067 48.5316 125.32C47.7849 124.573 46.4582 124.2 44.5516 124.2H41.2716C39.9916 124.187 38.9782 124.34 38.2316 124.66C37.4849 124.98 36.9516 125.513 36.6316 126.26C36.3116 127.007 36.1516 128.02 36.1516 129.3V133.82ZM59.7531 141C59.0465 141 58.6931 140.647 58.6931 139.94V123.14C58.6931 122.447 59.0465 122.1 59.7531 122.1C60.4465 122.1 60.7931 122.447 60.7931 123.14V125.06C62.0598 123.087 64.3531 122.1 67.6731 122.1H68.7931C71.2865 122.1 73.1065 122.68 74.2531 123.84C75.4131 124.987 75.9931 126.807 75.9931 129.3V139.94C75.9931 140.647 75.6465 141 74.9531 141C74.2465 141 73.8931 140.647 73.8931 139.94V129.3C73.8931 127.393 73.5131 126.067 72.7531 125.32C72.0065 124.573 70.6865 124.2 68.7931 124.2H67.6731C65.6065 124.2 63.9798 124.527 62.7931 125.18C61.6065 125.833 60.9398 126.853 60.7931 128.24V139.94C60.7931 140.647 60.4465 141 59.7531 141ZM90.8272 141C88.3739 141 86.5805 140.433 85.4472 139.3C84.3139 138.167 83.7472 136.38 83.7472 133.94V124.2H81.3672C80.6605 124.2 80.3072 123.847 80.3072 123.14C80.3072 122.447 80.6605 122.1 81.3672 122.1H83.7472V117.8C83.7472 117.093 84.0939 116.74 84.7872 116.74C85.4939 116.74 85.8472 117.093 85.8472 117.8V122.1H90.8672C91.5605 122.1 91.9072 122.447 91.9072 123.14C91.9072 123.847 91.5605 124.2 90.8672 124.2H85.8472V133.94C85.8472 135.807 86.2072 137.1 86.9272 137.82C87.6605 138.54 88.9605 138.9 90.8272 138.9C91.2139 138.9 91.4872 138.987 91.6472 139.16C91.8205 139.333 91.9072 139.593 91.9072 139.94C91.9072 140.647 91.5472 141 90.8272 141ZM98.5031 141C97.7965 141 97.4431 140.647 97.4431 139.94V123.14C97.4431 122.447 97.7965 122.1 98.5031 122.1C99.1965 122.1 99.5431 122.447 99.5431 123.14V126.22C100.236 124.887 101.236 123.867 102.543 123.16C103.863 122.453 105.423 122.1 107.223 122.1C107.93 122.1 108.283 122.447 108.283 123.14C108.283 123.847 107.93 124.2 107.223 124.2C104.85 124.2 103.01 124.74 101.703 125.82C100.396 126.887 99.6765 128.413 99.5431 130.4V139.94C99.5431 140.647 99.1965 141 98.5031 141ZM118.42 141C115.927 141 114.1 140.427 112.94 139.28C111.78 138.12 111.2 136.3 111.2 133.82V129.3C111.2 126.78 111.78 124.947 112.94 123.8C114.1 122.64 115.927 122.073 118.42 122.1H121.7C124.193 122.1 126.013 122.68 127.16 123.84C128.32 124.987 128.9 126.807 128.9 129.3V133.78C128.9 136.273 128.32 138.1 127.16 139.26C126.013 140.42 124.193 141 121.7 141H118.42ZM113.3 133.82C113.3 135.7 113.673 137.02 114.42 137.78C115.18 138.527 116.513 138.9 118.42 138.9H121.7C123.607 138.9 124.933 138.527 125.68 137.78C126.427 137.02 126.8 135.687 126.8 133.78V129.3C126.8 127.393 126.427 126.067 125.68 125.32C124.933 124.573 123.607 124.2 121.7 124.2H118.42C117.14 124.187 116.127 124.34 115.38 124.66C114.633 124.98 114.1 125.513 113.78 126.26C113.46 127.007 113.3 128.02 113.3 129.3V133.82ZM141.342 141C139.448 141 138.055 140.56 137.162 139.68C136.282 138.8 135.842 137.42 135.842 135.54V114.3C135.842 113.607 136.195 113.26 136.902 113.26C137.595 113.26 137.942 113.607 137.942 114.3V135.54C137.942 136.833 138.182 137.72 138.662 138.2C139.142 138.667 140.028 138.9 141.322 138.9C142.042 138.9 142.402 139.247 142.402 139.94C142.415 140.647 142.062 141 141.342 141ZM148.261 132.36V133.82C148.261 135.7 148.634 137.02 149.381 137.78C150.141 138.527 151.474 138.9 153.381 138.9H156.661C158.341 138.9 159.561 138.687 160.321 138.26C161.094 137.82 161.554 137.067 161.701 136C161.754 135.667 161.861 135.413 162.021 135.24C162.194 135.067 162.454 134.98 162.801 134.98C163.148 134.98 163.408 135.08 163.581 135.28C163.768 135.467 163.841 135.733 163.801 136.08C163.628 137.76 162.954 139 161.781 139.8C160.608 140.6 158.901 141 156.661 141H153.381C150.888 141 149.061 140.427 147.901 139.28C146.741 138.12 146.161 136.3 146.161 133.82V129.3C146.161 126.78 146.741 124.947 147.901 123.8C149.061 122.64 150.888 122.073 153.381 122.1H156.661C159.154 122.1 160.974 122.68 162.121 123.84C163.281 124.987 163.861 126.807 163.861 129.3V131.3C163.861 132.007 163.514 132.36 162.821 132.36H148.261ZM153.381 124.2C151.474 124.173 150.141 124.54 149.381 125.3C148.634 126.047 148.261 127.38 148.261 129.3V130.26H161.761V129.3C161.761 127.393 161.388 126.067 160.641 125.32C159.894 124.573 158.568 124.2 156.661 124.2H153.381Z" fill="black"/>
<path d="M155.188 255.479C159.35 245.583 165.4 236.593 173 229.01C180.583 221.406 189.578 215.355 199.479 211.198C219.891 202.718 242.81 202.565 263.333 210.771C263.539 217.515 266.366 223.914 271.212 228.609C276.059 233.304 282.544 235.925 289.292 235.917C303.729 235.917 315.333 224.313 315.333 209.875C315.333 195.438 303.729 183.833 289.292 183.833C282.115 183.833 275.625 186.708 270.927 191.385C245.604 181.25 216.521 181.406 191.396 192C179 197.208 167.854 204.708 158.271 214.281C148.595 223.96 140.925 235.455 135.701 248.106C130.478 260.756 127.804 274.314 127.833 288H148.667C148.667 276.688 150.865 265.75 155.188 255.479ZM308.802 320.521C304.625 330.438 298.625 339.354 290.99 346.99C283.354 354.625 274.438 360.625 264.51 364.802C244.099 373.282 221.179 373.435 200.656 365.229C200.456 358.485 197.632 352.084 192.787 347.389C187.942 342.693 181.456 340.072 174.708 340.083C160.271 340.083 148.667 351.688 148.667 366.125C148.667 380.563 160.271 392.167 174.708 392.167C181.885 392.167 188.375 389.292 193.073 384.615C205.443 389.608 218.66 392.172 232 392.167C252.485 392.206 272.525 386.195 289.606 374.887C306.686 363.579 320.047 347.478 328.01 328.604C333.422 315.753 336.195 301.944 336.167 288H315.333C315.36 299.169 313.138 310.228 308.802 320.521Z" fill="#0073FB"/>
<path d="M232 240.729C205.938 240.729 184.729 261.937 184.729 288C184.729 314.062 205.938 335.271 232 335.271C258.063 335.271 279.271 314.062 279.271 288C279.271 261.937 258.063 240.729 232 240.729Z" fill="#0073FB"/>
</svg>
