<svg width="760" height="295" viewBox="0 0 760 295" fill="none" xmlns="http://www.w3.org/2000/svg">
<mask id="mask0_104_12" style="mask-type:luminance" maskUnits="userSpaceOnUse" x="0" y="65" width="126" height="137">
<path d="M126 65H0V202H126V65Z" fill="white"/>
</mask>
<g mask="url(#mask0_104_12)">
<path d="M120.273 65V102.862H49.066C48.2065 102.854 47.3535 102.997 46.5562 103.283C45.759 103.569 45.0334 103.993 44.4213 104.53C43.9234 104.969 43.517 105.482 43.2211 106.048C43.8833 96.4564 47.9687 87.3037 54.8831 79.921C61.7972 72.5384 71.1792 67.3112 81.6637 65H120.273Z" fill="url(#paint0_linear_104_12)"/>
<path d="M82.9648 160.491C82.3774 170.13 78.3345 179.349 71.4286 186.795C64.523 194.241 55.1178 199.524 44.5912 201.869H7.75403V164.015H76.9173C77.7972 164.025 78.6707 163.877 79.4846 163.579C80.263 163.297 80.9695 162.878 81.562 162.347C82.1578 161.813 82.6339 161.183 82.9648 160.491Z" fill="url(#paint1_linear_104_12)"/>
<path d="M126 158.215C126.031 164.055 124.72 169.838 122.148 175.21C121.625 176.292 121.051 177.357 120.427 178.395C120.409 178.439 120.392 178.455 120.392 178.484C120.386 178.507 120.374 178.528 120.358 178.546C115.068 187.443 106.498 194.451 96.088 198.393C90.0354 200.715 83.5079 201.896 76.9168 201.863H44.6063L44.9782 201.774C55.417 199.371 64.725 194.074 71.5542 186.651C78.3837 179.228 82.3798 170.063 82.9643 160.485V160.469C83.582 159.04 83.5938 157.459 82.9977 156.023C82.9821 155.993 82.9643 155.947 82.9465 155.918C82.6252 155.227 82.1547 154.599 81.5616 154.069C80.9539 153.528 80.2287 153.102 79.4302 152.818C78.6318 152.534 77.7765 152.397 76.9168 152.416H49.0663C47.6813 152.416 46.2963 152.372 44.927 152.251C44.878 152.251 44.8268 152.235 44.76 152.235C39.6441 151.875 34.6315 150.758 29.9285 148.931C18.2261 144.45 8.90791 136.139 3.90148 125.717C3.24223 124.374 2.66691 123 2.1781 121.601C0.716738 117.412 -0.0175834 113.049 0.000475971 108.662C-0.0288704 102.81 1.29911 97.0148 3.90148 91.6395C8.93696 81.2494 18.2487 72.9658 29.9285 68.4863C33.3374 67.1586 36.9174 66.2099 40.5873 65.6618C40.7231 65.6301 40.8233 65.6162 40.8901 65.6004C40.9237 65.5928 40.958 65.5881 40.9925 65.5865C43.6605 65.1896 46.3611 64.9908 49.0663 64.9922H81.664C71.1793 67.3034 61.7972 72.5306 54.8831 79.9133C47.969 87.2959 43.8836 96.4487 43.2214 106.04C43.1501 106.151 43.0882 106.267 43.0366 106.386C42.703 107.105 42.5365 107.877 42.5467 108.654C42.5371 109.469 42.7088 110.276 43.0522 111.031C43.088 111.115 43.1334 111.195 43.188 111.271C43.479 111.873 43.8978 112.419 44.4215 112.879C45.0312 113.419 45.7564 113.845 46.5542 114.131C47.352 114.418 48.2061 114.559 49.0663 114.547H76.9168C83.4938 114.516 90.0091 115.677 96.0658 117.958C107.842 122.362 117.209 130.695 122.16 141.171C122.814 142.529 123.384 143.917 123.867 145.33C125.298 149.506 126.017 153.85 126 158.215Z" fill="url(#paint2_linear_104_12)"/>
<g style="mix-blend-mode:multiply" opacity="0.16">
<path d="M82.9639 160.491C82.3765 170.13 78.3336 179.349 71.428 186.795C64.5223 194.241 55.1169 199.524 44.5905 201.869H34.3214C42.9388 198.262 50.5463 192.994 56.5925 186.448C62.6388 179.902 66.9723 172.241 69.2791 164.021H76.9121C77.7921 164.031 78.6654 163.883 79.4792 163.585C80.2579 163.302 80.9644 162.884 81.5569 162.353C82.1549 161.818 82.6325 161.186 82.9639 160.491Z" fill="black"/>
</g>
<g style="mix-blend-mode:multiply" opacity="0.16">
<path d="M90.9198 65C81.4099 71.2949 62.1053 85.8239 57.2402 102.862H49.066C48.2065 102.854 47.3535 102.997 46.5562 103.283C45.759 103.569 45.0334 103.993 44.4213 104.53C43.9234 104.969 43.517 105.482 43.2211 106.048C43.8833 96.4564 47.9687 87.3037 54.8831 79.921C61.7972 72.5384 71.1792 67.3112 81.6637 65H90.9198Z" fill="black"/>
</g>
<g style="mix-blend-mode:multiply" opacity="0.25">
<path d="M120.274 76.328V102.87H60.8059C65.7535 102.435 70.7188 102.136 75.6686 101.924C80.6184 101.712 85.5837 101.527 90.5313 101.458C95.4967 101.323 100.446 101.339 105.412 101.294C109.865 101.339 114.278 101.339 118.723 101.428C118.772 99.7011 118.807 97.9719 118.89 96.2308C118.974 94.0203 119.059 91.8117 119.212 89.6032C119.457 85.1781 119.785 80.7452 120.274 76.328Z" fill="black"/>
</g>
<g style="mix-blend-mode:screen" opacity="0.7">
<path d="M126 158.215C126.031 164.055 124.72 169.838 122.148 175.21C121.625 176.292 121.05 177.358 120.427 178.396C120.596 177.989 121.153 176.696 121.986 174.713C123.276 171.341 124.12 167.848 124.502 164.302C124.742 161.954 124.794 159.593 124.655 157.239C124.486 154.635 124.079 152.047 123.44 149.502C123.108 148.186 122.697 146.886 122.206 145.61C121.632 144.289 121.057 142.949 120.483 141.612C119.194 138.983 117.609 136.477 115.753 134.131C113.946 131.754 111.855 129.557 109.519 127.579C107.268 125.658 104.826 123.924 102.222 122.397C99.7524 120.97 97.1601 119.719 94.4691 118.655C92.0452 117.728 89.5438 116.969 86.9876 116.385C83.0966 115.527 79.1183 115.019 75.113 114.868C72.1739 114.67 70.5017 114.553 70.5017 114.553H76.9032C83.4802 114.522 89.9956 115.683 96.0522 117.964C107.828 122.368 117.196 130.701 122.146 141.177C122.8 142.534 123.37 143.923 123.854 145.336C125.288 149.51 126.011 153.851 126 158.215Z" fill="white"/>
</g>
<g style="mix-blend-mode:multiply" opacity="0.25">
<path d="M39.2696 201.863H7.75403V173.241C8.14146 175.63 8.37744 177.995 8.63127 180.394C8.83389 182.783 9.02093 185.171 9.13894 187.544C9.30817 189.933 9.34161 192.324 9.44181 194.713L9.51083 200.301C11.5526 200.33 13.5967 200.33 15.6407 200.376C18.2592 200.467 20.8777 200.497 23.5118 200.647C28.7644 200.873 34.017 201.218 39.2696 201.863Z" fill="black"/>
</g>
<g style="mix-blend-mode:screen" opacity="0.7">
<path d="M44.76 152.235C39.6441 151.875 34.6315 150.758 29.9284 148.931C18.2261 144.45 8.90791 136.139 3.90148 125.717C3.24223 124.374 2.66691 123 2.1781 121.601C0.716738 117.411 -0.0175834 113.048 0.000475971 108.662C-0.0288704 102.81 1.29911 97.0146 3.90148 91.6394C8.93696 81.2492 18.2487 72.9656 29.9284 68.4861C33.3374 67.1584 36.9174 66.2097 40.5873 65.6616C38.7463 66.0554 36.9305 66.5367 35.1476 67.1036C23.0529 70.9463 13.0461 78.7263 7.14567 88.8742C3.24367 95.538 1.40691 103.006 1.82408 110.51C1.95493 114.281 2.68887 118.016 4.00389 121.603C4.39132 122.518 4.76321 123.435 5.13505 124.336L5.4045 125.011L5.47346 125.178C5.48902 125.206 5.50029 125.236 5.5069 125.267L5.67608 125.598L6.31734 126.875C7.1703 128.529 8.14627 130.131 9.23869 131.669C11.3097 134.598 13.7528 137.305 16.5197 139.736C19.0311 141.913 21.7805 143.861 24.7271 145.552C27.2425 146.972 29.8804 148.212 32.616 149.262C34.7506 150.07 36.9528 150.728 39.2023 151.231C41.0346 151.649 42.8896 151.984 44.76 152.235Z" fill="white"/>
</g>
<g style="mix-blend-mode:screen" opacity="0.7">
<path d="M81.6638 65C71.1793 67.3112 61.7972 72.5384 54.8831 79.921C47.9688 87.3037 43.8834 96.4564 43.2212 106.048C43.1499 106.159 43.088 106.275 43.0364 106.394L43.1722 106.018C43.121 104.829 43.121 103.629 43.121 102.427C43.2212 101.226 43.3726 100.024 43.5084 98.8058C43.7311 97.6174 44.0317 96.4289 44.2855 95.2404C44.624 94.052 45.0804 92.9111 45.4678 91.7246C45.9132 90.5678 46.4654 89.4546 47.0042 88.3137C47.5787 87.2025 48.2556 86.1348 48.8634 85.0375C49.5715 83.9718 50.3486 82.9656 51.0901 81.9138C51.9006 80.9234 52.7444 79.9449 53.5906 78.9823C54.5012 78.0513 55.4654 77.1659 56.3939 76.2627C57.407 75.4228 58.3978 74.581 59.451 73.7689L62.7442 71.5306C63.8931 70.8552 65.0577 70.2233 66.24 69.5776C67.4735 69.0368 68.6737 68.4505 69.905 67.9236L73.7237 66.6024C75.0596 66.2558 76.3578 65.9111 77.6759 65.6121C78.9941 65.3744 80.33 65.1803 81.6638 65Z" fill="white"/>
</g>
<g style="mix-blend-mode:screen" opacity="0.7">
<path d="M83.2698 160.469C83.2854 161.701 83.2854 162.904 83.252 164.12C83.1674 165.338 82.9982 166.541 82.8468 167.757C82.6107 168.958 82.3406 170.161 82.0363 171.364C81.6978 172.552 81.2592 173.723 80.8695 174.893C80.4242 176.066 79.8408 177.177 79.3109 178.32C78.7386 179.447 78.0796 180.529 77.4361 181.626C76.7436 182.692 75.9687 183.714 75.225 184.766C74.4145 185.772 73.5684 186.746 72.7245 187.725C71.8138 188.658 70.8497 189.559 69.9212 190.474C68.9081 191.332 67.9173 192.174 66.8641 193L63.5687 195.254C62.4197 195.93 61.2545 196.59 60.0729 197.235L56.4079 198.932L52.5736 200.299L48.637 201.321C47.6238 201.501 46.633 201.681 45.631 201.832L45.8537 201.862L44.6869 201.982C44.6713 201.998 44.6357 201.998 44.6201 201.998L44.6023 201.862L44.5867 201.727L44.9742 201.772C55.413 199.369 64.7209 194.072 71.5504 186.649C78.3797 179.226 82.3758 170.062 82.9603 160.483V160.467C83.2881 159.752 83.4488 158.985 83.4324 158.213C83.5548 158.967 83.4994 159.736 83.2698 160.469Z" fill="white"/>
</g>
</g>
<path d="M151.2 202C147.49 202 145.635 200.145 145.635 196.435V72.22C145.635 68.51 147.49 66.655 151.2 66.655H200.34C212.31 66.655 221.34 69.735 227.43 75.895C233.59 82.055 236.67 91.12 236.67 103.09V109.39C236.67 121.29 233.59 130.32 227.43 136.48C221.34 142.64 212.31 145.72 200.34 145.72H156.66V196.435C156.66 200.145 154.84 202 151.2 202ZM156.66 134.695H200.34C209.16 134.695 215.565 132.7 219.555 128.71C223.615 124.65 225.645 118.21 225.645 109.39V103.09C225.645 94.2 223.615 87.76 219.555 83.77C215.565 79.71 209.16 77.68 200.34 77.68H156.66V134.695ZM268.915 202C265.205 202 263.35 200.145 263.35 196.435V72.22C263.35 68.51 265.205 66.655 268.915 66.655C272.555 66.655 274.375 68.51 274.375 72.22V190.975H338.215C341.925 190.975 343.78 192.795 343.78 196.435C343.78 200.145 341.925 202 338.215 202H268.915ZM357.745 201.475C354.385 200.005 353.37 197.555 354.7 194.125L406.78 70.96C407.9 68.09 409.965 66.655 412.975 66.655H413.605C416.475 66.725 418.505 68.16 419.695 70.96L471.775 194.125C473.175 197.555 472.195 200.005 468.835 201.475C465.405 202.875 463.025 201.895 461.695 198.535L447.73 165.46H378.955L364.99 198.535C363.59 201.895 361.175 202.875 357.745 201.475ZM383.47 154.435H443.11L413.29 84.085L383.47 154.435ZM525.742 201.79C513.212 201.79 503.902 199.025 497.812 193.495C491.792 187.895 488.572 179.11 488.152 167.14C488.082 165.46 488.537 164.13 489.517 163.15C490.567 162.1 491.932 161.575 493.612 161.575C495.292 161.575 496.622 162.065 497.602 163.045C498.582 164.025 499.142 165.355 499.282 167.035C499.562 175.855 501.662 182.015 505.582 185.515C509.502 189.015 516.222 190.765 525.742 190.765H555.982C565.922 190.765 572.817 188.84 576.667 184.99C580.587 181.07 582.547 174.21 582.547 164.41C582.547 154.47 580.587 147.575 576.667 143.725C572.817 139.805 565.922 137.845 555.982 137.845H527.212C514.892 137.845 505.862 134.975 500.122 129.235C494.382 123.495 491.512 114.5 491.512 102.25C491.512 90 494.347 81.005 500.017 75.265C505.757 69.525 514.752 66.655 527.002 66.655H556.402C568.162 66.655 576.877 69.28 582.547 74.53C588.287 79.78 591.367 88.04 591.787 99.31C591.927 100.99 591.472 102.355 590.422 103.405C589.442 104.385 588.077 104.875 586.327 104.875C584.717 104.875 583.422 104.385 582.442 103.405C581.462 102.425 580.902 101.095 580.762 99.415C580.482 91.365 578.522 85.73 574.882 82.51C571.242 79.29 565.082 77.68 556.402 77.68H527.002C517.832 77.68 511.462 79.5 507.892 83.14C504.322 86.71 502.537 93.08 502.537 102.25C502.537 111.42 504.322 117.825 507.892 121.465C511.532 125.035 517.972 126.82 527.212 126.82H555.982C569.002 126.82 578.522 129.865 584.542 135.955C590.562 141.975 593.572 151.46 593.572 164.41C593.572 177.36 590.562 186.845 584.542 192.865C578.522 198.815 569.002 201.79 555.982 201.79H525.742ZM635.595 202C633.915 202 632.55 201.51 631.5 200.53C630.52 199.48 630.03 198.115 630.03 196.435V72.22C630.03 70.54 630.52 69.21 631.5 68.23C632.55 67.18 633.915 66.655 635.595 66.655C637.275 66.655 638.605 67.18 639.585 68.23C640.565 69.21 641.055 70.54 641.055 72.22V127.87H729.15V72.22C729.15 70.54 729.64 69.21 730.62 68.23C731.6 67.18 732.93 66.655 734.61 66.655C736.29 66.655 737.62 67.18 738.6 68.23C739.65 69.21 740.175 70.54 740.175 72.22V196.435C740.175 198.115 739.65 199.48 738.6 200.53C737.62 201.51 736.29 202 734.61 202C732.93 202 731.6 201.51 730.62 200.53C729.64 199.48 729.15 198.115 729.15 196.435V138.895H641.055V196.435C641.055 198.115 640.565 199.48 639.585 200.53C638.605 201.51 637.275 202 635.595 202Z" fill="#1049B8"/>
<path d="M1.72 285.9C1.08 285.62 0.886667 285.153 1.14 284.5L11.06 261.04C11.2733 260.493 11.6667 260.22 12.24 260.22H12.36C12.9067 260.233 13.2933 260.507 13.52 261.04L23.44 284.5C23.7067 285.153 23.52 285.62 22.88 285.9C22.2267 286.167 21.7733 285.98 21.52 285.34L18.86 279.04H5.76L3.1 285.34C2.83333 285.98 2.37333 286.167 1.72 285.9ZM6.62 276.94H17.98L12.3 263.54L6.62 276.94ZM42.4894 285.96C40.8494 285.96 39.596 285.613 38.7294 284.92C37.8627 284.213 37.3427 283.14 37.1694 281.7C37.1294 281.353 37.2027 281.087 37.3894 280.9C37.576 280.7 37.8494 280.6 38.2094 280.6C38.5427 280.6 38.7894 280.687 38.9494 280.86C39.1227 281.033 39.236 281.293 39.2894 281.64C39.4094 282.467 39.7094 283.047 40.1894 283.38C40.6827 283.7 41.4494 283.86 42.4894 283.86H49.0494C50.2894 283.86 51.1427 283.627 51.6094 283.16C52.076 282.693 52.3094 281.84 52.3094 280.6C52.3094 279.347 52.076 278.487 51.6094 278.02C51.1427 277.553 50.2894 277.32 49.0494 277.32H42.5694C40.836 277.32 39.5427 276.907 38.6894 276.08C37.8494 275.24 37.4294 273.953 37.4294 272.22C37.4294 270.447 37.8494 269.147 38.6894 268.32C39.5294 267.48 40.8227 267.06 42.5694 267.06H48.8494C51.8627 267.06 53.536 268.393 53.8694 271.06C53.9227 271.407 53.8494 271.68 53.6494 271.88C53.4627 272.067 53.196 272.16 52.8494 272.16C52.516 272.16 52.2627 272.073 52.0894 271.9C51.9294 271.727 51.816 271.473 51.7494 271.14C51.656 270.393 51.3827 269.88 50.9294 269.6C50.4894 269.307 49.796 269.16 48.8494 269.16H42.5694C41.4094 269.16 40.6094 269.373 40.1694 269.8C39.7427 270.227 39.5294 271.033 39.5294 272.22C39.5294 273.353 39.7494 274.14 40.1894 274.58C40.6294 275.007 41.4227 275.22 42.5694 275.22H49.0494C50.8894 275.22 52.2427 275.66 53.1094 276.54C53.976 277.407 54.4094 278.76 54.4094 280.6C54.4094 282.427 53.976 283.78 53.1094 284.66C52.2427 285.527 50.8894 285.96 49.0494 285.96H42.4894ZM67.3731 286C64.8798 286 63.0531 285.427 61.8931 284.28C60.7331 283.12 60.1531 281.3 60.1531 278.82V274.3C60.1531 271.78 60.7331 269.947 61.8931 268.8C63.0531 267.64 64.8798 267.073 67.3731 267.1H70.6531C73.1465 267.1 74.9665 267.68 76.1131 268.84C77.2731 269.987 77.8531 271.807 77.8531 274.3V278.78C77.8531 281.273 77.2731 283.1 76.1131 284.26C74.9665 285.42 73.1465 286 70.6531 286H67.3731ZM62.2531 278.82C62.2531 280.7 62.6265 282.02 63.3731 282.78C64.1331 283.527 65.4665 283.9 67.3731 283.9H70.6531C72.5598 283.9 73.8865 283.527 74.6331 282.78C75.3798 282.02 75.7531 280.687 75.7531 278.78V274.3C75.7531 272.393 75.3798 271.067 74.6331 270.32C73.8865 269.573 72.5598 269.2 70.6531 269.2H67.3731C66.0931 269.187 65.0798 269.34 64.3331 269.66C63.5865 269.98 63.0531 270.513 62.7331 271.26C62.4131 272.007 62.2531 273.02 62.2531 274.3V278.82ZM90.2947 286C88.4014 286 87.008 285.56 86.1147 284.68C85.2347 283.8 84.7947 282.42 84.7947 280.54V259.3C84.7947 258.607 85.148 258.26 85.8547 258.26C86.548 258.26 86.8947 258.607 86.8947 259.3V280.54C86.8947 281.833 87.1347 282.72 87.6147 283.2C88.0947 283.667 88.9814 283.9 90.2747 283.9C90.9947 283.9 91.3547 284.247 91.3547 284.94C91.368 285.647 91.0147 286 90.2947 286ZM112.315 267.1C113.022 267.1 113.375 267.447 113.375 268.14V284.94C113.375 285.647 113.022 286 112.315 286C111.622 286 111.275 285.647 111.275 284.94V283.04C110.009 285.013 107.715 286 104.395 286H103.275C100.782 286 98.9553 285.42 97.7953 284.26C96.6486 283.1 96.0753 281.273 96.0753 278.78V268.14C96.0753 267.447 96.422 267.1 97.1153 267.1C97.822 267.1 98.1753 267.447 98.1753 268.14V278.78C98.1753 280.687 98.5486 282.02 99.2953 282.78C100.055 283.527 101.382 283.9 103.275 283.9H104.395C106.462 283.9 108.089 283.567 109.275 282.9C110.462 282.233 111.129 281.213 111.275 279.84V268.14C111.275 267.447 111.622 267.1 112.315 267.1ZM127.529 286C125.036 286 123.209 285.42 122.049 284.26C120.889 283.1 120.309 281.273 120.309 278.78V274.26C120.309 271.767 120.883 269.947 122.029 268.8C123.189 267.64 125.023 267.073 127.529 267.1H130.809C132.769 267.1 134.263 267.433 135.289 268.1C136.329 268.753 136.949 269.787 137.149 271.2C137.189 271.56 137.109 271.833 136.909 272.02C136.723 272.207 136.456 272.3 136.109 272.3C135.789 272.3 135.549 272.22 135.389 272.06C135.229 271.887 135.109 271.64 135.029 271.32C134.883 270.547 134.489 270 133.849 269.68C133.209 269.36 132.196 269.2 130.809 269.2H127.529C125.623 269.173 124.289 269.533 123.529 270.28C122.783 271.013 122.409 272.34 122.409 274.26V278.78C122.409 280.687 122.783 282.02 123.529 282.78C124.289 283.527 125.623 283.9 127.529 283.9H130.809C132.196 283.9 133.209 283.74 133.849 283.42C134.489 283.1 134.883 282.547 135.029 281.76C135.109 281.44 135.229 281.2 135.389 281.04C135.549 280.867 135.789 280.78 136.109 280.78C136.456 280.78 136.723 280.88 136.909 281.08C137.109 281.267 137.189 281.533 137.149 281.88C136.949 283.293 136.329 284.333 135.289 285C134.263 285.667 132.769 286 130.809 286H127.529ZM129.809 294.14C127.503 294.14 126.349 292.987 126.349 290.68C126.349 290.027 126.676 289.7 127.329 289.7C127.983 289.7 128.309 290.027 128.309 290.68C128.309 291.28 128.409 291.68 128.609 291.88C128.809 292.08 129.209 292.18 129.809 292.18C130.716 292.18 131.323 292.02 131.629 291.7C131.949 291.38 132.109 290.773 132.109 289.88C132.109 289.6 132.049 289.373 131.929 289.2C131.809 289.04 131.543 288.82 131.129 288.54C130.876 288.38 130.596 288.173 130.289 287.92C129.996 287.667 129.736 287.333 129.509 286.92C129.296 286.52 129.189 286.013 129.189 285.4C129.189 284.747 129.516 284.42 130.169 284.42C130.823 284.42 131.149 284.747 131.149 285.4C131.149 285.733 131.216 285.993 131.349 286.18C131.483 286.38 131.769 286.627 132.209 286.92C132.569 287.16 132.969 287.493 133.409 287.92C133.849 288.36 134.069 289.013 134.069 289.88C134.069 291.333 133.723 292.407 133.029 293.1C132.349 293.793 131.276 294.14 129.809 294.14ZM148.54 286C146.46 286 144.933 285.52 143.96 284.56C143 283.587 142.52 282.06 142.52 279.98C142.52 277.9 143.006 276.373 143.98 275.4C144.953 274.427 146.473 273.94 148.54 273.94H157.64C157.613 272.18 157.213 270.953 156.44 270.26C155.68 269.553 154.38 269.2 152.54 269.2H150.22C148.526 269.2 147.286 269.38 146.5 269.74C145.713 270.1 145.226 270.713 145.04 271.58C144.946 271.913 144.82 272.16 144.66 272.32C144.513 272.467 144.273 272.54 143.94 272.54C143.593 272.54 143.32 272.447 143.12 272.26C142.933 272.06 142.866 271.793 142.92 271.46C143.093 269.94 143.78 268.833 144.98 268.14C146.193 267.447 147.94 267.1 150.22 267.1H152.54C155.033 267.1 156.853 267.68 158 268.84C159.16 269.987 159.74 271.807 159.74 274.3V284.94C159.74 285.647 159.393 286 158.7 286C157.993 286 157.64 285.647 157.64 284.94V282.96C156.36 284.987 154.073 286 150.78 286H148.54ZM148.54 283.9H150.78C152.073 283.9 153.206 283.76 154.18 283.48C155.166 283.187 155.96 282.72 156.56 282.08C157.16 281.44 157.52 280.587 157.64 279.52V276.04H148.54C147.06 276.04 146.033 276.327 145.46 276.9C144.9 277.46 144.62 278.487 144.62 279.98C144.62 281.46 144.9 282.487 145.46 283.06C146.033 283.62 147.06 283.9 148.54 283.9ZM153.7 263.88C152.94 263.88 152.326 263.707 151.86 263.36C151.406 263.013 151.033 262.693 150.74 262.4C150.433 262.08 150.16 261.84 149.92 261.68C149.68 261.507 149.36 261.42 148.96 261.42C148.466 261.42 148.093 261.553 147.84 261.82C147.6 262.087 147.386 262.52 147.2 263.12C147.106 263.347 146.973 263.533 146.8 263.68C146.64 263.813 146.42 263.853 146.14 263.8C145.74 263.747 145.486 263.58 145.38 263.3C145.273 263.007 145.266 262.753 145.36 262.54C145.706 261.5 146.173 260.733 146.76 260.24C147.346 259.747 148.08 259.5 148.96 259.5C149.786 259.5 150.446 259.68 150.94 260.04C151.433 260.4 151.826 260.74 152.12 261.06C152.48 261.407 152.76 261.64 152.96 261.76C153.173 261.88 153.42 261.94 153.7 261.94C154.14 261.94 154.486 261.813 154.74 261.56C154.993 261.307 155.213 260.893 155.4 260.32C155.493 260.067 155.613 259.88 155.76 259.76C155.92 259.627 156.16 259.573 156.48 259.6C156.866 259.653 157.113 259.82 157.22 260.1C157.326 260.38 157.34 260.627 157.26 260.84C156.9 261.813 156.433 262.567 155.86 263.1C155.3 263.62 154.58 263.88 153.7 263.88ZM173.545 286C171.052 286 169.225 285.427 168.065 284.28C166.905 283.12 166.325 281.3 166.325 278.82V274.3C166.325 271.78 166.905 269.947 168.065 268.8C169.225 267.64 171.052 267.073 173.545 267.1H176.825C179.318 267.1 181.138 267.68 182.285 268.84C183.445 269.987 184.025 271.807 184.025 274.3V278.78C184.025 281.273 183.445 283.1 182.285 284.26C181.138 285.42 179.318 286 176.825 286H173.545ZM168.425 278.82C168.425 280.7 168.798 282.02 169.545 282.78C170.305 283.527 171.638 283.9 173.545 283.9H176.825C178.732 283.9 180.058 283.527 180.805 282.78C181.552 282.02 181.925 280.687 181.925 278.78V274.3C181.925 272.393 181.552 271.067 180.805 270.32C180.058 269.573 178.732 269.2 176.825 269.2H173.545C172.265 269.187 171.252 269.34 170.505 269.66C169.758 269.98 169.225 270.513 168.905 271.26C168.585 272.007 168.425 273.02 168.425 274.3V278.82ZM202.066 294C201.359 294 201.006 293.647 201.006 292.94V268.14C201.006 267.447 201.359 267.1 202.066 267.1C202.759 267.1 203.106 267.447 203.106 268.14V269.92C203.706 268.987 204.566 268.287 205.686 267.82C206.806 267.34 208.239 267.1 209.986 267.1H211.506C213.999 267.1 215.819 267.68 216.966 268.84C218.126 269.987 218.706 271.807 218.706 274.3V278.78C218.706 281.273 218.126 283.1 216.966 284.26C215.819 285.42 213.999 286 211.506 286H203.106V292.94C203.106 293.647 202.759 294 202.066 294ZM203.106 283.9H211.506C213.412 283.9 214.739 283.527 215.486 282.78C216.232 282.02 216.606 280.687 216.606 278.78V274.3C216.606 272.393 216.232 271.067 215.486 270.32C214.739 269.573 213.412 269.2 211.506 269.2H209.986C207.852 269.2 206.212 269.533 205.066 270.2C203.932 270.867 203.279 271.893 203.106 273.28V283.9ZM231.274 286C229.194 286 227.667 285.52 226.694 284.56C225.734 283.587 225.254 282.06 225.254 279.98C225.254 277.9 225.741 276.373 226.714 275.4C227.687 274.427 229.207 273.94 231.274 273.94H240.374C240.347 272.18 239.947 270.953 239.174 270.26C238.414 269.553 237.114 269.2 235.274 269.2H232.954C231.261 269.2 230.021 269.38 229.234 269.74C228.447 270.1 227.961 270.713 227.774 271.58C227.681 271.913 227.554 272.16 227.394 272.32C227.247 272.467 227.007 272.54 226.674 272.54C226.327 272.54 226.054 272.447 225.854 272.26C225.667 272.06 225.601 271.793 225.654 271.46C225.827 269.94 226.514 268.833 227.714 268.14C228.927 267.447 230.674 267.1 232.954 267.1H235.274C237.767 267.1 239.587 267.68 240.734 268.84C241.894 269.987 242.474 271.807 242.474 274.3V284.94C242.474 285.647 242.127 286 241.434 286C240.727 286 240.374 285.647 240.374 284.94V282.96C239.094 284.987 236.807 286 233.514 286H231.274ZM231.274 283.9H233.514C234.807 283.9 235.941 283.76 236.914 283.48C237.901 283.187 238.694 282.72 239.294 282.08C239.894 281.44 240.254 280.587 240.374 279.52V276.04H231.274C229.794 276.04 228.767 276.327 228.194 276.9C227.634 277.46 227.354 278.487 227.354 279.98C227.354 281.46 227.634 282.487 228.194 283.06C228.767 283.62 229.794 283.9 231.274 283.9ZM250.659 286C249.953 286 249.599 285.647 249.599 284.94V268.14C249.599 267.447 249.953 267.1 250.659 267.1C251.353 267.1 251.699 267.447 251.699 268.14V271.22C252.393 269.887 253.393 268.867 254.699 268.16C256.019 267.453 257.579 267.1 259.379 267.1C260.086 267.1 260.439 267.447 260.439 268.14C260.439 268.847 260.086 269.2 259.379 269.2C257.006 269.2 255.166 269.74 253.859 270.82C252.553 271.887 251.833 273.413 251.699 275.4V284.94C251.699 285.647 251.353 286 250.659 286ZM269.087 286C267.007 286 265.48 285.52 264.507 284.56C263.547 283.587 263.067 282.06 263.067 279.98C263.067 277.9 263.553 276.373 264.527 275.4C265.5 274.427 267.02 273.94 269.087 273.94H278.187C278.16 272.18 277.76 270.953 276.987 270.26C276.227 269.553 274.927 269.2 273.087 269.2H270.767C269.073 269.2 267.833 269.38 267.047 269.74C266.26 270.1 265.773 270.713 265.587 271.58C265.493 271.913 265.367 272.16 265.207 272.32C265.06 272.467 264.82 272.54 264.487 272.54C264.14 272.54 263.867 272.447 263.667 272.26C263.48 272.06 263.413 271.793 263.467 271.46C263.64 269.94 264.327 268.833 265.527 268.14C266.74 267.447 268.487 267.1 270.767 267.1H273.087C275.58 267.1 277.4 267.68 278.547 268.84C279.707 269.987 280.287 271.807 280.287 274.3V284.94C280.287 285.647 279.94 286 279.247 286C278.54 286 278.187 285.647 278.187 284.94V282.96C276.907 284.987 274.62 286 271.327 286H269.087ZM269.087 283.9H271.327C272.62 283.9 273.753 283.76 274.727 283.48C275.713 283.187 276.507 282.72 277.107 282.08C277.707 281.44 278.067 280.587 278.187 279.52V276.04H269.087C267.607 276.04 266.58 276.327 266.007 276.9C265.447 277.46 265.167 278.487 265.167 279.98C265.167 281.46 265.447 282.487 266.007 283.06C266.58 283.62 267.607 283.9 269.087 283.9ZM304.131 286C301.638 286 299.811 285.427 298.651 284.28C297.491 283.12 296.911 281.3 296.911 278.82V274.3C296.911 271.78 297.491 269.947 298.651 268.8C299.811 267.64 301.638 267.073 304.131 267.1H307.411C309.904 267.1 311.724 267.68 312.871 268.84C314.031 269.987 314.611 271.807 314.611 274.3V278.78C314.611 281.273 314.031 283.1 312.871 284.26C311.724 285.42 309.904 286 307.411 286H304.131ZM299.011 278.82C299.011 280.7 299.384 282.02 300.131 282.78C300.891 283.527 302.224 283.9 304.131 283.9H307.411C309.318 283.9 310.644 283.527 311.391 282.78C312.138 282.02 312.511 280.687 312.511 278.78V274.3C312.511 272.393 312.138 271.067 311.391 270.32C310.644 269.573 309.318 269.2 307.411 269.2H304.131C302.851 269.187 301.838 269.34 301.091 269.66C300.344 269.98 299.811 270.513 299.491 271.26C299.171 272.007 299.011 273.02 299.011 274.3V278.82ZM333.152 277.36V278.82C333.152 280.7 333.525 282.02 334.272 282.78C335.032 283.527 336.365 283.9 338.272 283.9H341.552C343.232 283.9 344.452 283.687 345.212 283.26C345.985 282.82 346.445 282.067 346.592 281C346.645 280.667 346.752 280.413 346.912 280.24C347.085 280.067 347.345 279.98 347.692 279.98C348.038 279.98 348.298 280.08 348.472 280.28C348.658 280.467 348.732 280.733 348.692 281.08C348.518 282.76 347.845 284 346.672 284.8C345.498 285.6 343.792 286 341.552 286H338.272C335.778 286 333.952 285.427 332.792 284.28C331.632 283.12 331.052 281.3 331.052 278.82V274.3C331.052 271.78 331.632 269.947 332.792 268.8C333.952 267.64 335.778 267.073 338.272 267.1H341.552C344.045 267.1 345.865 267.68 347.012 268.84C348.172 269.987 348.752 271.807 348.752 274.3V276.3C348.752 277.007 348.405 277.36 347.712 277.36H333.152ZM338.272 269.2C336.365 269.173 335.032 269.54 334.272 270.3C333.525 271.047 333.152 272.38 333.152 274.3V275.26H346.652V274.3C346.652 272.393 346.278 271.067 345.532 270.32C344.785 269.573 343.458 269.2 341.552 269.2H338.272ZM371.813 294C371.106 294 370.753 293.647 370.753 292.94V286H362.373C359.88 286 358.053 285.42 356.893 284.26C355.733 283.1 355.153 281.273 355.153 278.78V274.3C355.153 271.807 355.733 269.987 356.893 268.84C358.053 267.68 359.88 267.1 362.373 267.1H363.893C365.666 267.1 367.106 267.34 368.213 267.82C369.333 268.3 370.18 269.007 370.753 269.94V268.14C370.753 267.447 371.106 267.1 371.813 267.1C372.506 267.1 372.853 267.447 372.853 268.14V292.94C372.853 293.647 372.506 294 371.813 294ZM362.373 283.9H370.753V273.16C370.753 271.827 370.126 270.833 368.873 270.18C367.633 269.527 365.973 269.2 363.893 269.2H362.373C360.466 269.2 359.133 269.573 358.373 270.32C357.626 271.067 357.253 272.393 357.253 274.3V278.78C357.253 280.687 357.626 282.02 358.373 282.78C359.133 283.527 360.466 283.9 362.373 283.9ZM395.87 267.1C396.577 267.1 396.93 267.447 396.93 268.14V284.94C396.93 285.647 396.577 286 395.87 286C395.177 286 394.83 285.647 394.83 284.94V283.04C393.563 285.013 391.27 286 387.95 286H386.83C384.337 286 382.51 285.42 381.35 284.26C380.203 283.1 379.63 281.273 379.63 278.78V268.14C379.63 267.447 379.977 267.1 380.67 267.1C381.377 267.1 381.73 267.447 381.73 268.14V278.78C381.73 280.687 382.103 282.02 382.85 282.78C383.61 283.527 384.937 283.9 386.83 283.9H387.95C390.017 283.9 391.643 283.567 392.83 282.9C394.017 282.233 394.683 281.213 394.83 279.84V268.14C394.83 267.447 395.177 267.1 395.87 267.1ZM405.004 263.46C404.084 263.46 403.624 262.987 403.624 262.04V261.14C403.624 260.22 404.084 259.76 405.004 259.76H405.904C406.797 259.76 407.244 260.22 407.244 261.14V262.04C407.244 262.987 406.797 263.46 405.904 263.46H405.004ZM405.464 286C404.757 286 404.404 285.647 404.404 284.94V268.14C404.404 267.447 404.757 267.1 405.464 267.1C406.157 267.1 406.504 267.447 406.504 268.14V284.94C406.504 285.647 406.157 286 405.464 286ZM419.474 286C417.581 286 416.188 285.56 415.294 284.68C414.414 283.8 413.974 282.42 413.974 280.54V259.3C413.974 258.607 414.328 258.26 415.034 258.26C415.728 258.26 416.074 258.607 416.074 259.3V280.54C416.074 281.833 416.314 282.72 416.794 283.2C417.274 283.667 418.161 283.9 419.454 283.9C420.174 283.9 420.534 284.247 420.534 284.94C420.548 285.647 420.194 286 419.474 286ZM425.595 264.62C425.115 264.193 425.075 263.72 425.475 263.2L428.895 259.14C429.335 258.607 429.808 258.567 430.315 259.02C430.795 259.433 430.835 259.9 430.435 260.42L427.015 264.48C426.588 265.013 426.115 265.06 425.595 264.62ZM426.675 286C425.968 286 425.615 285.647 425.615 284.94V268.14C425.615 267.447 425.968 267.1 426.675 267.1C427.368 267.1 427.715 267.447 427.715 268.14V284.94C427.715 285.647 427.368 286 426.675 286ZM436.245 286C435.539 286 435.185 285.647 435.185 284.94V259.3C435.185 258.607 435.539 258.26 436.245 258.26C436.939 258.26 437.285 258.607 437.285 259.3V269.88C437.885 268.96 438.739 268.26 439.845 267.78C440.965 267.3 442.405 267.06 444.165 267.06H445.685C448.179 267.06 449.999 267.64 451.145 268.8C452.305 269.96 452.885 271.787 452.885 274.28V278.78C452.885 281.273 452.305 283.1 451.145 284.26C449.999 285.42 448.179 286 445.685 286H444.165C442.405 286 440.965 285.767 439.845 285.3C438.739 284.82 437.885 284.113 437.285 283.18V284.94C437.285 285.647 436.939 286 436.245 286ZM444.165 283.9H445.685C447.592 283.9 448.919 283.527 449.665 282.78C450.412 282.02 450.785 280.687 450.785 278.78V274.28C450.785 272.373 450.405 271.047 449.645 270.3C448.899 269.54 447.579 269.16 445.685 269.16H444.165C442.085 269.16 440.419 269.487 439.165 270.14C437.912 270.793 437.285 271.787 437.285 273.12V280.02C437.312 281.313 437.952 282.287 439.205 282.94C440.459 283.58 442.112 283.9 444.165 283.9ZM460.894 286C460.187 286 459.834 285.647 459.834 284.94V268.14C459.834 267.447 460.187 267.1 460.894 267.1C461.587 267.1 461.934 267.447 461.934 268.14V271.22C462.627 269.887 463.627 268.867 464.934 268.16C466.254 267.453 467.814 267.1 469.614 267.1C470.32 267.1 470.674 267.447 470.674 268.14C470.674 268.847 470.32 269.2 469.614 269.2C467.24 269.2 465.4 269.74 464.094 270.82C462.787 271.887 462.067 273.413 461.934 275.4V284.94C461.934 285.647 461.587 286 460.894 286ZM475.512 263.46C474.592 263.46 474.132 262.987 474.132 262.04V261.14C474.132 260.22 474.592 259.76 475.512 259.76H476.412C477.305 259.76 477.752 260.22 477.752 261.14V262.04C477.752 262.987 477.305 263.46 476.412 263.46H475.512ZM475.972 286C475.265 286 474.912 285.647 474.912 284.94V268.14C474.912 267.447 475.265 267.1 475.972 267.1C476.665 267.1 477.012 267.447 477.012 268.14V284.94C477.012 285.647 476.665 286 475.972 286ZM491.162 286C488.669 286 486.842 285.427 485.682 284.28C484.522 283.12 483.942 281.3 483.942 278.82V274.3C483.942 271.78 484.522 269.947 485.682 268.8C486.842 267.64 488.669 267.073 491.162 267.1H494.442C496.936 267.1 498.756 267.68 499.902 268.84C501.062 269.987 501.642 271.807 501.642 274.3V278.78C501.642 281.273 501.062 283.1 499.902 284.26C498.756 285.42 496.936 286 494.442 286H491.162ZM486.042 278.82C486.042 280.7 486.416 282.02 487.162 282.78C487.922 283.527 489.256 283.9 491.162 283.9H494.442C496.349 283.9 497.676 283.527 498.422 282.78C499.169 282.02 499.542 280.687 499.542 278.78V274.3C499.542 272.393 499.169 271.067 498.422 270.32C497.676 269.573 496.349 269.2 494.442 269.2H491.162C489.882 269.187 488.869 269.34 488.122 269.66C487.376 269.98 486.842 270.513 486.522 271.26C486.202 272.007 486.042 273.02 486.042 274.3V278.82ZM539.803 267.06C541.949 267.06 543.483 267.607 544.403 268.7C545.336 269.793 545.803 271.6 545.803 274.12V284.98C545.803 285.673 545.456 286.02 544.763 286.02C544.056 286.02 543.703 285.673 543.703 284.98V274.12C543.703 272.36 543.403 271.093 542.803 270.32C542.203 269.547 541.203 269.16 539.803 269.16H538.143C536.396 269.16 535.143 269.547 534.383 270.32C533.636 271.093 533.263 272.36 533.263 274.12V284.98C533.263 285.673 532.916 286.02 532.223 286.02C531.516 286.02 531.163 285.673 531.163 284.98V274.12C531.163 272.36 530.863 271.093 530.263 270.32C529.663 269.547 528.663 269.16 527.263 269.16H525.603C523.856 269.16 522.603 269.547 521.843 270.32C521.096 271.093 520.723 272.36 520.723 274.12V284.98C520.723 285.673 520.376 286.02 519.683 286.02C518.976 286.02 518.623 285.673 518.623 284.98V268.14C518.623 267.447 518.976 267.1 519.683 267.1C520.376 267.1 520.723 267.447 520.723 268.14V269.7C521.309 268.753 522.003 268.08 522.803 267.68C523.616 267.267 524.643 267.06 525.883 267.06H527.263C528.663 267.06 529.783 267.307 530.623 267.8C531.476 268.28 532.149 269.073 532.643 270.18C533.229 269.073 533.949 268.28 534.803 267.8C535.656 267.307 536.769 267.06 538.143 267.06H539.803ZM557.758 286C555.678 286 554.152 285.52 553.178 284.56C552.218 283.587 551.738 282.06 551.738 279.98C551.738 277.9 552.225 276.373 553.198 275.4C554.172 274.427 555.692 273.94 557.758 273.94H566.858C566.832 272.18 566.432 270.953 565.658 270.26C564.898 269.553 563.598 269.2 561.758 269.2H559.438C557.745 269.2 556.505 269.38 555.718 269.74C554.932 270.1 554.445 270.713 554.258 271.58C554.165 271.913 554.038 272.16 553.878 272.32C553.732 272.467 553.492 272.54 553.158 272.54C552.812 272.54 552.538 272.447 552.338 272.26C552.152 272.06 552.085 271.793 552.138 271.46C552.312 269.94 552.998 268.833 554.198 268.14C555.412 267.447 557.158 267.1 559.438 267.1H561.758C564.252 267.1 566.072 267.68 567.218 268.84C568.378 269.987 568.958 271.807 568.958 274.3V284.94C568.958 285.647 568.612 286 567.918 286C567.212 286 566.858 285.647 566.858 284.94V282.96C565.578 284.987 563.292 286 559.998 286H557.758ZM557.758 283.9H559.998C561.292 283.9 562.425 283.76 563.398 283.48C564.385 283.187 565.178 282.72 565.778 282.08C566.378 281.44 566.738 280.587 566.858 279.52V276.04H557.758C556.278 276.04 555.252 276.327 554.678 276.9C554.118 277.46 553.838 278.487 553.838 279.98C553.838 281.46 554.118 282.487 554.678 283.06C555.252 283.62 556.278 283.9 557.758 283.9ZM577.144 286C576.437 286 576.084 285.647 576.084 284.94V268.14C576.084 267.447 576.437 267.1 577.144 267.1C577.837 267.1 578.184 267.447 578.184 268.14V271.22C578.877 269.887 579.877 268.867 581.184 268.16C582.504 267.453 584.064 267.1 585.864 267.1C586.57 267.1 586.924 267.447 586.924 268.14C586.924 268.847 586.57 269.2 585.864 269.2C583.49 269.2 581.65 269.74 580.344 270.82C579.037 271.887 578.317 273.413 578.184 275.4V284.94C578.184 285.647 577.837 286 577.144 286ZM591.762 263.46C590.842 263.46 590.382 262.987 590.382 262.04V261.14C590.382 260.22 590.842 259.76 591.762 259.76H592.662C593.555 259.76 594.002 260.22 594.002 261.14V262.04C594.002 262.987 593.555 263.46 592.662 263.46H591.762ZM592.222 286C591.515 286 591.162 285.647 591.162 284.94V268.14C591.162 267.447 591.515 267.1 592.222 267.1C592.915 267.1 593.262 267.447 593.262 268.14V284.94C593.262 285.647 592.915 286 592.222 286ZM601.792 286C601.086 286 600.732 285.647 600.732 284.94V268.14C600.732 267.447 601.086 267.1 601.792 267.1C602.486 267.1 602.832 267.447 602.832 268.14V270.06C604.099 268.087 606.392 267.1 609.712 267.1H610.832C613.326 267.1 615.146 267.68 616.292 268.84C617.452 269.987 618.032 271.807 618.032 274.3V284.94C618.032 285.647 617.686 286 616.992 286C616.286 286 615.932 285.647 615.932 284.94V274.3C615.932 272.393 615.552 271.067 614.792 270.32C614.046 269.573 612.726 269.2 610.832 269.2H609.712C607.646 269.2 606.019 269.527 604.832 270.18C603.646 270.833 602.979 271.853 602.832 273.24V284.94C602.832 285.647 602.486 286 601.792 286ZM626.206 286C625.5 286 625.146 285.647 625.146 284.94V259.3C625.146 258.607 625.5 258.26 626.206 258.26C626.9 258.26 627.246 258.607 627.246 259.3V270.06C628.513 268.087 630.806 267.1 634.126 267.1H635.246C637.74 267.1 639.56 267.68 640.706 268.84C641.866 269.987 642.446 271.807 642.446 274.3V284.94C642.446 285.647 642.1 286 641.406 286C640.7 286 640.346 285.647 640.346 284.94V274.3C640.346 272.393 639.966 271.067 639.206 270.32C638.46 269.573 637.14 269.2 635.246 269.2H634.126C632.06 269.2 630.433 269.527 629.246 270.18C628.06 270.833 627.393 271.853 627.246 273.24V284.94C627.246 285.647 626.9 286 626.206 286ZM656.24 286C653.747 286 651.92 285.427 650.76 284.28C649.6 283.12 649.02 281.3 649.02 278.82V274.3C649.02 271.78 649.6 269.947 650.76 268.8C651.92 267.64 653.747 267.073 656.24 267.1H659.52C662.014 267.1 663.834 267.68 664.98 268.84C666.14 269.987 666.72 271.807 666.72 274.3V278.78C666.72 281.273 666.14 283.1 664.98 284.26C663.834 285.42 662.014 286 659.52 286H656.24ZM651.12 278.82C651.12 280.7 651.494 282.02 652.24 282.78C653 283.527 654.334 283.9 656.24 283.9H659.52C661.427 283.9 662.754 283.527 663.5 282.78C664.247 282.02 664.62 280.687 664.62 278.78V274.3C664.62 272.393 664.247 271.067 663.5 270.32C662.754 269.573 661.427 269.2 659.52 269.2H656.24C654.96 269.187 653.947 269.34 653.2 269.66C652.454 269.98 651.92 270.513 651.6 271.26C651.28 272.007 651.12 273.02 651.12 274.3V278.82Z" fill="black"/>
<defs>
<linearGradient id="paint0_linear_104_12" x1="120.273" y1="85.5238" x2="46.3803" y2="85.5238" gradientUnits="userSpaceOnUse">
<stop stop-color="#0912EE"/>
<stop offset="0.322" stop-color="#25B5F3"/>
<stop offset="1" stop-color="#001AFF"/>
</linearGradient>
<linearGradient id="paint1_linear_104_12" x1="4.82081" y1="181.18" x2="75.8198" y2="181.18" gradientUnits="userSpaceOnUse">
<stop stop-color="#092EEE"/>
<stop offset="0.322" stop-color="#25DAF3"/>
<stop offset="1" stop-color="#0085FF"/>
</linearGradient>
<linearGradient id="paint2_linear_104_12" x1="63.0004" y1="63.8973" x2="63.0004" y2="205.56" gradientUnits="userSpaceOnUse">
<stop stop-color="#0500FC"/>
<stop offset="0.162" stop-color="#0037FB"/>
<stop offset="0.307" stop-color="#0064FB"/>
<stop offset="0.446" stop-color="#0073FB"/>
<stop offset="0.581" stop-color="#0082FA"/>
<stop offset="0.712" stop-color="#0082FA"/>
<stop offset="0.842" stop-color="#009FF9"/>
<stop offset="0.967" stop-color="#00CBF8"/>
<stop offset="1" stop-color="#00CBF8"/>
</linearGradient>
</defs>
</svg>
