<svg width="1980" height="508" viewBox="0 0 1980 508" fill="none" xmlns="http://www.w3.org/2000/svg">
<path fill-rule="evenodd" clip-rule="evenodd" d="M0 285.983L66 257.989C132 229.996 264 174.009 396 193.315C528 211.655 660 304.323 792 276.33C924 248.336 1056 100.646 1188 72.6529C1320 44.6594 1452 137.328 1584 155.668C1716 174.009 1848 118.987 1914 90.9935L1980 63V508H1914C1848 508 1716 508 1584 508C1452 508 1320 508 1188 508C1056 508 924 508 792 508C660 508 528 508 396 508C264 508 132 508 66 508H0V285.983Z" fill="#8ECAF2"/>
<path fill-rule="evenodd" clip-rule="evenodd" d="M0 304.8H82.5C165 304.8 330 304.8 495 338.667C660 372.533 825 440.267 990 389.467C1155 338.667 1320 169.333 1485 84.6667C1650 0 1815 0 1897.5 0H1980V508H1897.5C1815 508 1650 508 1485 508C1320 508 1155 508 990 508C825 508 660 508 495 508C330 508 165 508 82.5 508H0V304.8Z" fill="#0099FF" fill-opacity="0.65"/>
</svg>
